<svg width="256" height="256" viewBox="0 0 256 256" fill="none" xmlns="http://www.w3.org/2000/svg">
<circle cx="128" cy="129" r="128" fill="#FDBC34"/>
<mask id="mask0_3_8" style="mask-type:alpha" maskUnits="userSpaceOnUse" x="-91" y="-71" width="262" height="358">
<rect x="4.72144" y="-71" width="174" height="319.81" transform="rotate(17.416 4.72144 -71)" fill="#D9D9D9"/>
</mask>
<g mask="url(#mask0_3_8)">
<circle cx="128" cy="129" r="128" fill="#EF7F00" fill-opacity="0.24"/>
</g>
<path d="M179.25 210L76.7498 210C63.1575 210 50.122 204.6 40.5108 194.989C30.8996 185.377 25.5001 172.342 25.5001 158.75L230.5 158.75C230.5 172.342 225.1 185.377 215.489 194.989C205.878 204.6 192.842 210 179.25 210Z" fill="#CC4900"/>
<path d="M158.75 158.75H220.25V179.25H158.75V158.75Z" fill="#E76400"/>
<path d="M169 158.75H25.5002C25.5002 172.342 30.8996 185.378 40.5108 194.989C50.122 204.6 63.1575 210 76.7498 210H117.75C131.342 210 144.378 204.6 153.989 194.989C163.6 185.378 169 172.342 169 158.75V158.75Z" fill="#EF7F00"/>
<path d="M179.25 210V189.5C186.068 189.5 192.693 187.235 198.083 183.06C203.473 178.886 207.324 173.039 209.029 166.438L228.878 171.563C226.037 182.564 219.62 192.31 210.637 199.267C201.653 206.225 190.613 210 179.25 210V210Z" fill="#BF3C00"/>
<path d="M35.75 158.75H158.75V179.25H35.75V158.75Z" fill="#F59707"/>
<path d="M128 189.5L35.75 148.5H220.25L128 189.5Z" fill="#FDBC34"/>
<path d="M125.919 179.206L194.019 148.94L198.183 158.309L130.083 188.575L125.919 179.206Z" fill="#FDAB00"/>
<path d="M210 117.75H46.0003C34.6784 117.75 25.5002 126.928 25.5002 138.25C25.5002 149.572 34.6784 158.75 46.0003 158.75H210C221.322 158.75 230.5 149.572 230.5 138.25C230.5 126.928 221.322 117.75 210 117.75Z" fill="#8B2800"/>
<path d="M148.5 117.75H46.0003C34.6784 117.75 25.5002 126.928 25.5002 138.25C25.5002 149.572 34.6784 158.75 46.0003 158.75H148.5C159.822 158.75 169 149.572 169 138.25C169 126.928 159.822 117.75 148.5 117.75Z" fill="#993B17"/>
<path d="M133.125 148.5C158.599 148.5 179.25 139.322 179.25 128C179.25 116.678 158.599 107.5 133.125 107.5C107.651 107.5 87.0002 116.678 87.0002 128C87.0002 139.322 107.651 148.5 133.125 148.5Z" fill="#C11107"/>
<path d="M174.125 148.5C199.599 148.5 220.25 137.027 220.25 122.875C220.25 108.723 199.599 97.25 174.125 97.25C148.651 97.25 128 108.723 128 122.875C128 137.027 148.651 148.5 174.125 148.5Z" fill="#C82E25"/>
<path d="M81.875 138.25C107.349 138.25 128 129.072 128 117.75C128 106.428 107.349 97.25 81.875 97.25C56.4009 97.25 35.75 106.428 35.75 117.75C35.75 129.072 56.4009 138.25 81.875 138.25Z" fill="#C82E25"/>
<path d="M174.125 138.25C193.938 138.25 210 131.366 210 122.875C210 114.383 193.938 107.5 174.125 107.5C154.312 107.5 138.25 114.383 138.25 122.875C138.25 131.366 154.312 138.25 174.125 138.25Z" fill="#D2514A"/>
<path d="M35.75 117.75C35.75 117.75 35.75 128 56.2502 128C76.7503 128 76.7498 138.25 87.0002 138.25C97.2505 138.25 97.25 128 117.75 128C138.25 128 136.255 138.25 147.503 138.25C158.75 138.25 158.75 128 179.25 128C199.75 128 220.25 128 220.25 107.5H35.75V117.75Z" fill="#FEE3AA"/>
<path d="M87.0002 117.75C87.0002 108.328 88.856 98.9978 92.4618 90.2927C96.0676 81.5876 101.353 73.6779 108.015 67.0154C114.678 60.3528 122.587 55.0677 131.293 51.462C139.998 47.8562 149.328 46.0003 158.75 46.0003C168.172 46.0003 177.502 47.8562 186.207 51.462C194.913 55.0677 202.822 60.3528 209.485 67.0154C216.147 73.6779 221.432 81.5876 225.038 90.2927C228.644 98.9978 230.5 108.328 230.5 117.75H87.0002Z" fill="#EF7F00"/>
<path d="M158.75 87.0002C181.394 87.0002 199.75 77.8219 199.75 66.5C199.75 55.1781 181.394 45.9998 158.75 45.9998C136.106 45.9998 117.75 55.1781 117.75 66.5C117.75 77.8219 136.106 87.0002 158.75 87.0002Z" fill="#E76400"/>
<path d="M174.125 158.75C167.537 158.754 160.969 158.017 154.546 156.553C147.5 158.021 140.322 158.757 133.125 158.75C115.773 158.75 100.113 154.916 89.7475 148.189C87.1851 148.385 84.5627 148.5 81.875 148.5C63.9377 148.5 47.7415 144.446 37.4465 137.374L43.2525 128.926C51.8808 134.851 65.9595 138.25 81.875 138.25C84.8928 138.25 87.816 138.09 90.6585 137.825L92.5654 137.649L94.1173 138.765C106.304 147.519 131.829 151.118 153.48 146.298L154.651 146.038L155.812 146.318C161.807 147.773 167.955 148.506 174.125 148.5C191.842 148.5 207.718 142.989 215.561 134.116L223.238 140.903C213.368 152.078 195.006 158.75 174.125 158.75Z" fill="#7D1A00"/>
<path d="M179.25 97.25H220.25V117.75H179.25V97.25Z" fill="#FDBC34"/>
<path d="M25.5002 117.75C25.5002 98.7209 33.0595 80.4711 46.5152 67.0154C59.9709 53.5597 78.2208 46.0003 97.25 46.0003C116.279 46.0003 134.529 53.5597 147.985 67.0154C161.441 80.4711 169 98.7209 169 117.75H25.5002Z" fill="#F59707"/>
<path d="M35.75 97.25H158.75V117.75H35.75V97.25Z" fill="#FDCF6D"/>
<path d="M97.25 87.0002C119.894 87.0002 138.25 77.8219 138.25 66.5C138.25 55.1781 119.894 45.9998 97.25 45.9998C74.6064 45.9998 56.2502 55.1781 56.2502 66.5C56.2502 77.8219 74.6064 87.0002 97.25 87.0002Z" fill="#EF7F00"/>
<path d="M66.5 76.7503C72.1608 76.7503 76.7498 74.4557 76.7498 71.6252C76.7498 68.7946 72.1608 66.5 66.5 66.5C60.8392 66.5 56.2502 68.7946 56.2502 71.6252C56.2502 74.4557 60.8392 76.7503 66.5 76.7503Z" fill="#FEE3AA"/>
<path d="M97.25 56.2502C102.911 56.2502 107.5 53.9556 107.5 51.125C107.5 48.2945 102.911 45.9998 97.25 45.9998C91.5892 45.9998 87.0002 48.2945 87.0002 51.125C87.0002 53.9556 91.5892 56.2502 97.25 56.2502Z" fill="#FEE3AA"/>
<path d="M128 66.5C133.661 66.5 138.25 64.2054 138.25 61.3748C138.25 58.5443 133.661 56.2497 128 56.2497C122.339 56.2497 117.75 58.5443 117.75 61.3748C117.75 64.2054 122.339 66.5 128 66.5Z" fill="#FEE3AA"/>
<path d="M179.25 66.5C184.911 66.5 189.5 64.2054 189.5 61.3748C189.5 58.5443 184.911 56.2497 179.25 56.2497C173.589 56.2497 169 58.5443 169 61.3748C169 64.2054 173.589 66.5 179.25 66.5Z" fill="#FDCF6D"/>
<path d="M148.5 56.2502C154.161 56.2502 158.75 53.9556 158.75 51.125C158.75 48.2945 154.161 45.9998 148.5 45.9998C142.839 45.9998 138.25 48.2945 138.25 51.125C138.25 53.9556 142.839 56.2502 148.5 56.2502Z" fill="#FDCF6D"/>
</svg>
